<?xml version="1.0" encoding="UTF-8"?>
<svg id="Livello_1" data-name="Livello 1" xmlns="http://www.w3.org/2000/svg" viewBox="0 0 900 340">
  <defs>
    <style>
      .cls-1 {
        fill: #008d7e;
      }

      .cls-2 {
        fill: #005847;
      }

      .cls-3 {
        fill: #7dc189;
      }
    </style>
  </defs>
  <g>
    <g>
      <path class="cls-1" d="M34.72,219.56V103.58h34.35v84.23h43.2v31.76H34.72Z"/>
      <path class="cls-1" d="M186.06,220.86l-11.08-115.73,32.7-3.13,11.08,115.73-32.7,3.13Z"/>
      <path class="cls-1" d="M296.86,219.77l-47.02-61.88v61.88h-31.07V103.65h27.8l48.52,63.65v-63.65h31.08v116.12h-29.3Z"/>
      <path class="cls-1" d="M329.72,219.56V103.58h41.3c8.86,0,17.31,1.36,24.8,4.23,7.22,2.73,13.63,6.68,18.81,11.99,5.18,5.04,9.4,11.18,12.13,18.26,2.73,7.09,4.22,15.13,4.22,23.58,0,17.17-5.45,31.62-15.67,41.71-10.49,10.63-25.76,16.22-43.89,16.22h-41.71Zm27.53-32.98h12.13c8.72,0,16.76-2.45,22.35-7.09,5.72-4.63,8.86-10.9,8.86-17.72s-3-13.08-8.59-17.85c-5.32-4.63-12.54-7.09-20.31-7.09h-14.45v49.75Z"/>
      <path class="cls-1" d="M481.6,219.56c-8.45,0-16.22-1.5-23.44-4.36-6.95-2.73-13.08-6.95-18.26-12.13-5.18-5.32-9.13-11.58-11.86-18.81-2.86-7.36-4.36-15.54-4.36-24.12s1.5-16.9,4.36-24.26c2.73-7.22,6.68-13.49,11.86-18.81s11.31-9.4,18.26-12.27c7.09-2.86,14.99-4.36,23.44-4.36s16.36,1.5,23.44,4.36c6.95,2.86,13.08,6.95,18.26,12.27,5.18,5.32,9.13,11.58,11.86,18.81,2.86,7.36,4.36,15.54,4.36,24.26s-1.5,16.76-4.36,24.12c-2.73,7.09-6.68,13.49-11.86,18.67-5.18,5.32-11.31,9.4-18.26,12.27-7.09,2.86-14.99,4.36-23.44,4.36Zm-.82-85.32c-6.68,0-12.95,2.73-17.31,7.63-4.36,4.91-6.81,11.58-6.81,18.81s2.45,13.77,6.81,18.67,10.63,7.63,17.31,7.63,12.95-2.59,17.45-7.63c4.36-4.77,6.81-11.45,6.81-18.67s-2.45-13.9-6.81-18.67c-4.36-5.04-10.63-7.77-17.45-7.77Z"/>
      <path class="cls-1" d="M562.29,219.56l-40.61-115.98h34.75l21.12,70.33,21.4-70.33h34.07l-40.34,115.98h-30.39Z"/>
      <path class="cls-1" d="M737.56,219.7l-47.02-61.88v61.88h-31.08V103.58h27.8l48.52,63.65v-63.65h31.08v116.12h-29.3Z"/>
      <path class="cls-1" d="M807.36,219.56c-8.45,0-16.22-1.5-23.44-4.36-6.95-2.73-13.08-6.95-18.26-12.13-5.18-5.32-9.13-11.58-11.86-18.81-2.86-7.36-4.36-15.54-4.36-24.12s1.5-16.9,4.36-24.26c2.73-7.22,6.68-13.49,11.86-18.81s11.31-9.4,18.26-12.27c7.09-2.86,14.99-4.36,23.44-4.36s16.36,1.5,23.44,4.36c6.95,2.86,13.08,6.95,18.26,12.27,5.18,5.32,9.13,11.58,11.86,18.81,2.86,7.36,4.36,15.54,4.36,24.26s-1.5,16.76-4.36,24.12c-2.73,7.09-6.68,13.49-11.86,18.67-5.18,5.32-11.31,9.4-18.26,12.27-7.09,2.86-14.99,4.36-23.44,4.36Zm-.82-85.32c-6.68,0-12.95,2.73-17.31,7.63-4.36,4.91-6.81,11.58-6.81,18.81s2.45,13.77,6.81,18.67,10.63,7.63,17.31,7.63,12.95-2.59,17.45-7.63c4.36-4.77,6.81-11.45,6.81-18.67s-2.45-13.9-6.81-18.67c-4.36-5.04-10.63-7.77-17.45-7.77Z"/>
      <path class="cls-2" d="M133.88,130.28c-2.98,.55-6.47-2.32-7.64-4.9-.99-2.18-.82-8.7,1.96-9.77,1.42-.55,2.84-1.52,3.9-2.61,.24-.25,1.75-1.83,.75-2-2.89-.47-5.8-1.31-7.64-3.77-1.29-1.71-1.55-3.89-1.28-5.97,.32-2.38,1.37-4.48,1.95-6.78,.62-2.47,.72-5.07,.4-7.59-.6-4.75-3.09-8.11-7.2-10.51-2.03-1.19-4.21-2.07-6.32-3.11-2.26-1.11-4.2-1.97-6.75-1.41-.94,.21-6.83,4.32-5.26,4.79,5.12,1.52,8.59,6.23,9.23,11.47,.36,2.94-.09,5.95-.89,8.78-.51,1.82-1.2,3.58-1.96,5.31-.4,.91-1.46,2.32-1.49,3.3-.07,2.49,4.49,4.98,6.27,6.14,1.97,1.29,4.12,1.85,6.35,2.17-.74,.51-1.65,1.19-2.12,1.81-3.85,3.67-6.5,8.96-4.15,14.22,2.93,6.56,11.11,6.85,17.07,5.17,1.69-.47,3.29-1.54,4.51-2.79,.43-.44,1.94-2.28,.29-1.97Z"/>
    </g>
    <g>
      <path class="cls-3" d="M155.03,318.63c-9.77,2.51-20.16,3.78-30.27,2.44-7.33-.97-14.41-3.14-20.84-7.05-5.56-3.29-10.27-7.66-14.05-12.71-4.31-5.47-7.45-11.82-9.67-18.42-2.6-7.49-4.44-15.32-4.64-23.31-.18-7.44,.85-15.06,3.62-22.03,2.73-7.1,6.93-13.47,12.21-19,10.72-10.96,24.93-17.93,40.13-19.66,6.56-.8,13.09-.17,19.32,1.95,6.52,2.18,12.55,5.63,18.38,9.41,.67,.38,.72,1.08,.5,1.84-1.08,2.27-2.16,4.54-3.2,6.94-2.85,6.14-5.61,12.12-8.46,18.26-.25,.63-1.21,.75-1.84,.5-2.01-1.15-3.88-2.33-6.08-3.15-3.5-1.45-7.16-2.43-11.03-2.65-7.18-.45-14.51,1.68-19.77,6.78-5.16,4.93-7.92,11.9-7.85,18.94-.1,13.16,8.62,27.03,21.84,29.94,7,1.35,14.46-.82,20.37-4.55,3.04-1.81,5.77-4.25,7.82-7.07,1.45-1.95,2.47-3.92,3.45-6.02,.38-.67,1.3-.92,1.84-.5,1.84,1.05,3.58,2.27,5.29,3.36,5.79,3.65,11.46,7.34,17.12,11.02,.5,.29,.81,.91,.56,1.54-.31,.93-.49,1.83-.94,2.8-2.47,7.03-6.77,13.56-12.32,18.6-6.1,5.61-13.53,9.47-21.52,11.78-1.71,.46-2.42-2.17-.71-2.63s3.38-1.06,5.06-1.66c7.55-2.9,14.2-7.53,19.29-13.72,2.58-2.96,4.63-6.34,6.34-9.92,.89-1.94,1.61-3.97,2.19-5.96,.27,.49,.42,1.02,.69,1.51-1.88-1.18-3.58-2.27-5.33-3.5-5.79-3.65-11.42-7.21-17.08-10.89l1.84-.5c-.44,.97-.98,2.1-1.56,3.11-1.11,2.14-2.56,4.09-4.34,5.84-3.3,3.44-7.38,6.1-11.81,8.01-6.62,2.65-13.75,3.45-20.51,.91-6.03-2.46-11.15-6.72-14.63-12.27-4.09-6.23-6.37-14.09-5.6-21.64,.58-7.22,3.74-14.29,9.33-19.2,5.72-4.94,13.28-7.28,20.72-6.9,4.04,.31,8.22,1.15,11.93,2.83,2.37,.91,4.54,2.16,6.71,3.4l-1.84,.5c1.04-2.4,2.12-4.67,3.16-7.07,2.89-6.01,5.61-12.12,8.49-18.13l.5,1.84c-5.46-3.46-11.01-6.75-17.11-8.91-6.23-2.12-12.52-2.95-19.09-2.16-7.26,.84-14.42,3.07-20.9,6.24-13.42,6.75-24.76,18.03-29.63,32.34-5.06,14.65-2.98,30.61,2.7,44.74,2.37,6.13,5.7,12.15,10.04,17.19,4.13,4.81,9.17,8.81,14.88,11.63,14.16,6.89,30.64,6.22,45.54,2.31,1.71-.46,2.42,2.17,.71,2.63Z"/>
      <path class="cls-3" d="M243.72,318.93c-8.18,0-16.35-1.11-23.99-3.67-7.09-2.33-13.63-5.89-18.94-10.45-11.18-9.45-16.35-22.45-16.35-35.46,.14-13,5.18-26.12,16.35-35.68,5.32-4.56,11.72-8,18.94-10.45,7.5-2.45,15.81-3.67,23.99-3.67s16.49,1.11,23.99,3.67c7.22,2.44,13.63,5.89,18.94,10.45,11.18,9.56,16.35,22.67,16.35,35.68-.14,12.89-5.18,26.01-16.35,35.46-5.32,4.56-11.72,8.11-18.81,10.45-7.63,2.56-15.95,3.67-24.12,3.67-1.77,0-1.77-2.22,0-2.22,12.13,0,24.12-2.67,33.94-8.45,12.68-7.34,20.17-19.12,22.08-31.57,1.91-12.89-1.09-26.68-10.63-37.23-4.5-5-10.22-9-16.76-12-6.95-3.11-14.72-4.89-22.49-5.45-15.81-1.11-32.3,2.22-44.29,11-5.59,4.11-10.09,9.11-13.08,14.78-3.27,6-4.91,12.56-5.18,19.01-.55,12.78,3.68,26.01,14.45,35.68,5.04,4.56,11.31,8.11,18.26,10.56,7.5,2.44,15.54,3.67,23.71,3.67,1.77,0,1.77,2.22,0,2.22Zm-.82-69.58c-4.09,0-8.31,.89-11.86,2.78-3.54,1.89-6.27,4.45-8.04,7.45-6.27,10.34-2.04,25.23,11.99,29.45,6.41,1.89,13.9,1.44,19.76-1.56,6-3.11,9.68-8.45,10.63-14.12,1.09-5.78-.41-12-4.77-16.78-4.09-4.56-10.77-7.22-17.72-7.22-1.77,0-1.77-2.22,0-2.22,6.27,0,12.27,1.89,16.76,5.22,4.5,3.45,7.36,8.11,8.31,13,1.23,6.11,0,12.67-4.09,17.78-3.95,5-10.22,8.34-17.45,9.11-7.22,.67-14.58-1-20.03-5-5.59-4-8.59-10-9-16.01-.41-6.11,1.77-12.34,6.68-17.01,4.63-4.56,11.58-7.11,18.81-7.11,1.77,0,1.77,2.22,0,2.22Z"/>
      <path class="cls-3" d="M385.7,318.76c-.68,.41-1.5,0-1.91-.55-.14-.14-.27-.41-.41-.54-3.13-4.09-6.27-8.18-9.27-12.27-5.32-6.81-10.49-13.77-15.67-20.58-4.91-6.54-9.95-12.95-14.86-19.49-2.18-2.86-4.36-5.72-6.54-8.59,.95-.14,1.77-.41,2.59-.68v61.47c0,.68-.68,1.36-1.36,1.36h-30.94c-.82,0-1.36-.68-1.36-1.36v-115.3c0-.82,.54-1.36,1.36-1.36h27.39c.55,0,1.09,.14,1.5,.68,0,0,0,.14,.14,.14,.27,.41,.55,.82,.82,1.23,3.54,4.5,6.95,9,10.36,13.63,5.32,6.95,10.63,13.9,15.95,20.85,4.91,6.27,9.68,12.68,14.58,19.08,2.18,2.73,4.23,5.59,6.41,8.31-.82,.27-1.77,.55-2.59,.68v-63.24c0-.82,.68-1.36,1.36-1.36h30.94c.82,0,1.36,.54,1.36,1.36v115.3c0,.68-.54,1.36-1.36,1.36h-29.17c-1.77,0-1.77-2.73,0-2.73h29.17c-.41,.41-.82,.95-1.36,1.36v-115.3c.54,.41,.95,.82,1.36,1.36h-30.94c.54-.54,.95-.95,1.36-1.36v63.24c0,.68-.41,1.23-.95,1.36-.68,.14-1.23-.14-1.5-.68-.41-.41-.82-.82-1.09-1.36-3.41-4.5-6.95-9-10.36-13.49-5.32-6.95-10.63-13.9-15.95-20.85-4.77-6.41-9.68-12.81-14.58-19.22-2.04-2.73-4.23-5.59-6.41-8.31,.41,.27,.82,.41,1.23,.68h-27.67c.41-.54,.82-.95,1.36-1.36v115.3c-.54-.41-.95-.95-1.36-1.36h30.94c-.41,.41-.95,.95-1.36,1.36v-61.47c0-.54,.41-1.09,.95-1.23,.68-.27,1.23,.14,1.64,.55,.14,.27,.27,.41,.41,.68,3.13,4.09,6.13,8.04,9.27,12.13,5.18,6.95,10.49,13.77,15.67,20.58,4.91,6.54,9.81,12.95,14.72,19.49,2.18,2.86,4.36,5.72,6.54,8.59,.55,.54,.14,1.5-.41,1.91Z"/>
      <path class="cls-3" d="M508.09,320.94c-5.72,0-11.45-.68-16.9-2.32-6.41-1.91-12.54-5.18-17.45-9.81-5.45-5.18-9.27-11.72-11.45-18.94-1.91-6.13-2.73-12.67-2.73-19.22v-65.28c0-.68,.55-1.36,1.36-1.36h31.48c.68,0,1.36,.68,1.36,1.36v63.92c0,5.86,.82,12.95,5.45,17.04,2.45,2.04,5.72,2.86,8.86,2.86,3.27-.14,6.41-.82,9-2.73,5.04-3.95,6-11.45,6-17.45v-63.65c0-.68,.54-1.36,1.36-1.36h31.35c.68,0,1.36,.68,1.36,1.36v64.87c0,11.31-2.32,23.17-9.13,32.57-4.23,5.86-9.95,10.63-16.63,13.63-7.36,3.13-15.26,4.5-23.31,4.5-1.77,0-1.77-2.73,0-2.73,5.32,0,10.77-.54,15.95-2.04,7.09-2.04,13.77-5.72,18.81-11.18,4.36-4.77,7.36-10.49,9.27-16.76,1.64-5.72,2.32-11.58,2.32-17.58v-65.28c.41,.54,.82,.95,1.36,1.36h-31.35c.41-.41,.95-.82,1.36-1.36v61.6c0,2.73,0,5.32-.41,7.91-.82,6.41-3.54,12.81-9.81,15.54-3.41,1.36-7.09,1.77-10.77,1.23-3.13-.55-6.27-1.91-8.45-4.36-5.45-6-5.32-14.31-5.32-21.81v-60.1c.41,.54,.96,.95,1.36,1.36h-31.48c.41-.41,.95-.82,1.36-1.36v64.33c0,4.09,.14,8.04,.82,12.13,1.23,7.36,3.95,14.58,8.59,20.58,3.95,5.32,9.4,9.27,15.54,11.86,6.54,2.86,13.76,3.95,20.85,3.95,1.77,0,1.77,2.73,0,2.73Z"/>
      <path class="cls-3" d="M589.73,316.85c2.18-2.86,4.36-5.72,6.54-8.59,4.91-6.54,9.81-12.95,14.72-19.49,5.18-6.81,10.5-13.63,15.67-20.58,3.13-4.09,6.13-8.04,9.27-12.13,.14-.27,.27-.41,.41-.68,.41-.41,.95-.82,1.63-.55,.55,.14,.96,.68,.96,1.23v12.95c0,8.72,0,17.45,0,26.03v20.31c0,.68,0,1.5,0,2.18-.41-.41-.96-.95-1.36-1.36,6.54,0,12.95,0,19.49,0,3.82,0,7.63,0,11.45,0-.41,.41-.82,.95-1.36,1.36v-7.63c0-6.54,0-12.95,0-19.49v-25.76c0-9,0-17.85,0-26.71v-22.35c0-4.09,0-8.18,0-12.4v-.95c.54,.41,.95,.82,1.36,1.36h-20.03c-2.59,0-5.18,0-7.63,0,.41-.27,.82-.41,1.23-.68-2.18,2.73-4.36,5.59-6.41,8.31-4.91,6.41-9.81,12.81-14.58,19.22-5.32,6.95-10.63,13.9-15.95,20.85-3.41,4.5-6.95,9-10.36,13.49-.27,.55-.68,.95-1.09,1.36-.27,.54-.82,.82-1.5,.68-.54-.14-.96-.68-.96-1.36v-12.54c0-8.72,0-17.31,0-26.03v-21.4c0-1.09,0-2.18,0-3.27,.41,.41,.82,.82,1.36,1.36-6.54,0-12.95,0-19.49,0h-11.45c.41-.54,.82-.95,1.36-1.36v7.63c0,6.54,0,12.95,0,19.49,0,8.59,0,17.17,0,25.76v26.71c0,7.5,0,14.86,0,22.35v12.4c0,.27,0,.68,0,.95-.54-.41-.95-.95-1.36-1.36,6.54,0,13.08,0,19.76,0,3.13,0,6.27,0,9.4,0,1.77,0,1.77,2.73,0,2.73-6.54,0-13.08,0-19.76,0-3.13,0-6.27,0-9.4,0-.82,0-1.36-.68-1.36-1.36v-7.63c0-6.54,0-12.95,0-19.49v-25.76c0-9,0-17.85,0-26.71v-22.35c0-4.09,0-8.18,0-12.4v-.95c0-.82,.54-1.36,1.36-1.36h19.35c3.95,0,7.77,0,11.58,0,.68,0,1.36,.54,1.36,1.36v12.67c0,8.59,0,17.31,0,25.9v21.4c0,1.09,0,2.18,0,3.27-.82-.14-1.77-.41-2.59-.68,2.18-2.73,4.22-5.59,6.41-8.31,4.91-6.41,9.68-12.81,14.58-19.08,5.32-6.95,10.63-13.9,15.95-20.85,3.41-4.63,6.81-9.13,10.36-13.63,.27-.41,.54-.82,.82-1.23,.14,0,.14-.14,.14-.14,.41-.54,.95-.68,1.5-.68h9.13c6,0,12.13,0,18.26,0,.82,0,1.36,.54,1.36,1.36v7.63c0,6.54,0,12.95,0,19.49,0,8.59,0,17.17,0,25.76v26.71c0,7.5,0,14.86,0,22.35v12.4c0,.27,0,.68,0,.95,0,.68-.54,1.36-1.36,1.36-6.41,0-12.95,0-19.49,0h-11.45c-.68,0-1.36-.68-1.36-1.36,0-4.36,0-8.59,0-12.95,0-8.72,0-17.31,0-26.03v-20.31c0-.68,0-1.36,0-2.18,.82,.27,1.64,.55,2.59,.68-2.18,2.86-4.36,5.72-6.54,8.59-4.91,6.54-9.95,12.95-14.86,19.49-5.18,6.81-10.36,13.77-15.67,20.58-3,4.09-6.13,8.18-9.27,12.27-.14,.14-.27,.41-.41,.54-.41,.55-1.23,.95-1.91,.55-.54-.41-.95-1.36-.41-1.91Z"/>
      <path class="cls-3" d="M752.87,317.94c-.41-1.5-.95-3-1.36-4.5-2.04-6.54-3.95-13.08-6-19.49,.41,.27,.96,.68,1.36,.95h-34.89c.54-.27,.95-.68,1.36-.95-.54,1.5-.96,3-1.5,4.63-2.04,6.41-4.09,12.95-6.13,19.35-.14,.55-.68,1.09-1.23,1.09h-31.48c-.82,0-1.64-.95-1.36-1.77,.54-1.36,.95-2.59,1.36-3.82,1.91-5.18,3.68-10.22,5.59-15.26,2.73-7.5,5.45-14.99,8.18-22.49,3.13-8.45,6.13-16.9,9.27-25.49,2.86-7.9,5.72-15.81,8.59-23.71,2.18-5.72,4.22-11.58,6.41-17.45,.82-2.32,1.64-4.63,2.45-6.81,.14-.68,.68-1.09,1.36-1.09h29.03c.68,0,1.09,.41,1.36,1.09,.41,1.23,.82,2.45,1.36,3.82,1.77,5.04,3.54,10.09,5.45,15.13,2.72,7.5,5.45,14.99,8.18,22.49,3,8.45,6.13,16.9,9.13,25.49,2.86,7.91,5.72,15.81,8.59,23.71,2.18,5.86,4.22,11.72,6.41,17.58,.82,2.18,1.63,4.5,2.45,6.81,.27,.82-.41,1.77-1.36,1.77h-31.21c-1.77,0-1.77-2.86,0-2.86h31.21c-.41,.68-.82,1.23-1.23,1.77-.54-1.23-.95-2.45-1.36-3.82-1.91-5.04-3.68-10.09-5.59-15.13-2.73-7.5-5.31-14.99-8.04-22.49-3.13-8.59-6.13-17.04-9.27-25.49-2.86-7.91-5.72-15.81-8.59-23.71-2.04-5.86-4.23-11.72-6.41-17.58-.82-2.32-1.63-4.5-2.45-6.81,.41,.27,.95,.68,1.36,.95h-29.03c.41-.27,.82-.68,1.23-.95-.41,1.23-.95,2.59-1.36,3.82-1.91,5.04-3.68,10.09-5.59,15.26-2.73,7.5-5.45,14.99-8.18,22.49-3,8.45-6.13,16.9-9.13,25.35-2.86,7.9-5.72,15.81-8.72,23.71-2.04,5.86-4.23,11.72-6.27,17.58-.82,2.32-1.64,4.5-2.59,6.81-.41-.55-.82-1.09-1.23-1.77h31.48c-.41,.41-.95,.68-1.36,1.09,.54-1.5,.96-3.13,1.5-4.63,2.04-6.54,4.09-12.95,6.13-19.49,.14-.54,.68-.95,1.23-.95h34.89c.54,0,1.09,.41,1.23,.95,.54,1.64,.95,3.13,1.5,4.63,1.91,6.41,3.95,12.95,5.86,19.49,.54,1.64-2.04,2.32-2.59,.68Zm-9.95-44.43c-.68,.14-1.36-.27-1.63-.95-1.5-4.22-3.13-8.45-4.77-12.67-2.18-6-4.36-11.99-6.68-17.99h2.73c-1.64,4.36-3.27,8.59-5.04,12.81-2.18,6-4.5,11.86-6.81,17.85-.41-.68-.82-1.23-1.23-1.77h23.17c1.77,0,1.77,2.73,0,2.73h-23.17c-.82,0-1.64-.95-1.36-1.77,1.64-4.23,3.27-8.45,4.91-12.81,2.32-5.86,4.63-11.86,6.81-17.72,.55-1.23,2.18-1.36,2.73,0,1.5,4.22,3.13,8.45,4.63,12.67,2.32,6,4.5,11.86,6.68,17.85,.27,.68-.27,1.5-.96,1.77Z"/>
    </g>
  </g>
  <path class="cls-2" d="M717.67,84.41c-1.75-2.17-9.32,4.36-10.47,5.51,2.31-2.29-2.12-1.25-3.51-1.59-1.57-.38-3.1-1.08-4.57-1.92-3.88-2.22-7.02-6.07-9.67-10.42-4.74-7.76-7.65-17.15-11.7-25.52-3.83-7.91-8.57-14.27-14.98-18.23-6.57-4.06-13.9-5.66-19.01-13.09-2.59-3.78-17.03,7.36-15.65,12.19,12,41.9,14.84,104.38,12.81,147.69-17.32-1.3-36.45,11.02-33.16,25.77,5.55,24.85,34,24.79,45.32,5.88,5.71-9.53,4.04-26.66,4.29-38.24,.34-15.9,.11-31.81-.62-47.68-1.23-26.66-4.01-53.1-8.22-79.16,.5,.32,1,.65,1.49,1,9.51,6.81,13.72,20.28,19,32.12,4.65,10.44,10.9,20.47,20.23,22.87,8.78,2.26,17.46-2.47,24.46-9.42,1.41-1.4,6.03-5.2,3.96-7.76Z"/>
</svg>